<svg width="769" height="119" viewBox="0 0 769 119" fill="none" xmlns="http://www.w3.org/2000/svg">
<g clip-path="url(#clip0_19_63)">
<path d="M159.464 112.431C150.931 116.239 141.985 118.198 133.146 118.198C100.108 118.198 74.6548 92.5094 74.6548 59.1719C74.6548 25.8345 100.636 0 134.615 0C143.708 0 152.209 1.87575 159.458 5.48736V44.681C152.254 36.7838 145.215 33.1594 137.082 33.1594C122.528 33.1594 111.273 44.4712 111.273 59.102C111.273 73.7328 122.521 85.0446 137.044 85.0446C145.145 85.0446 152.324 81.4266 159.451 73.7583V112.431H159.464Z" fill="white" style="fill:white;fill-opacity:1;"/>
<path d="M237.794 67.6924C248.349 62.4658 254.275 52.0697 254.275 38.7677C254.275 16.7102 237.298 2.21289 211.47 2.21289H169.142V115.998H204.488V81.0643C215.915 84.4343 223.068 96.6616 222.801 112.367L222.737 116.004H259.05L259.089 112.679C259.305 92.9547 251.579 76.6388 237.794 67.7052V67.6924ZM206.828 51.8535H204.488V31.1121H205.868C213.606 31.1121 218.28 35.0798 218.28 41.6545C218.28 48.2292 213.975 51.8535 206.828 51.8535Z" fill="white" style="fill:white;fill-opacity:1;"/>
<path d="M386.824 115.991V33.1655H363.285V2.20605H445.691V33.1655H422.158V115.991H386.824Z" fill="white" style="fill:white;fill-opacity:1;"/>
<path d="M530.5 112.431C521.967 116.239 513.021 118.198 504.182 118.198C471.144 118.198 445.691 92.5094 445.691 59.1719C445.691 25.8345 471.678 0 505.657 0C514.75 0 523.251 1.87575 530.5 5.48736V44.681C523.296 36.7838 516.257 33.1594 508.125 33.1594C493.57 33.1594 482.315 44.4712 482.315 59.102C482.315 73.7328 493.564 85.0446 508.086 85.0446C516.187 85.0446 523.366 81.4266 530.494 73.7583V112.431H530.5Z" fill="white" style="fill:white;fill-opacity:1;"/>
<path d="M540.184 115.998V2.21289H575.531V42.6846H601.651V2.21289H636.998V115.998H601.651V73.6312H575.531V115.998H540.184Z" fill="white" style="fill:white;fill-opacity:1;"/>
<path d="M683.307 2.21289H647.96V115.998H683.307V2.21289Z" fill="white" style="fill:white;fill-opacity:1;"/>
<path d="M694.275 115.991V2.20605H769V33.1655H729.622V43.7841H760.677V73.7897H729.622V85.0442H769V115.991H694.275Z" fill="white" style="fill:white;fill-opacity:1;"/>
<path d="M321.624 86.2969C311.139 86.2969 302.644 91.4536 302.644 108.304C302.644 110.561 302.797 113.174 303.089 116.004H340.165C340.452 113.174 340.61 110.561 340.61 108.304C340.61 91.4536 332.109 86.2969 321.63 86.2969H321.624Z" fill="#F97115" style="fill:#F97115;fill:color(display-p3 0.9765 0.4431 0.0824);fill-opacity:1;"/>
<path d="M303.089 115.997C302.803 113.168 302.644 110.554 302.644 108.297C302.644 91.4472 311.139 86.2905 321.624 86.2905C332.109 86.2905 340.604 91.4472 340.604 108.297C340.604 110.554 340.452 113.168 340.159 115.997H379.111L341.742 2.21875H301.512L264.137 116.004H303.089V115.997ZM321.624 76.1551C314.528 76.1551 306.332 68.7602 302.841 41.8638L315.437 51.6304L321.624 36.7007L327.811 51.6304L340.407 41.8638C336.91 68.7602 328.72 76.1614 321.624 76.1551Z" fill="white" style="fill:white;fill-opacity:1;"/>
<path d="M327.811 51.6309L321.624 36.7012L315.437 51.6309L302.841 41.8642C306.338 68.7606 314.528 76.1618 321.624 76.1555C328.72 76.1555 336.916 68.7606 340.407 41.8642L327.811 51.6309Z" fill="#4DB360" style="fill:#4DB360;fill:color(display-p3 0.3020 0.7020 0.3765);fill-opacity:1;"/>
<path d="M0.960129 110.574V69.9941C10.5423 80.8162 19.1772 86.3099 26.5911 86.3099C31.4744 86.3099 34.5837 84.0209 34.5837 80.422C34.5837 67.864 0 66.3125 0 35.0988C0 14.4973 15.2349 0 36.8855 0C45.3232 0 53.5002 2.39079 61.9188 7.3186V43.6891C54.473 35.0097 49.5134 31.6843 43.8989 31.271C39.2826 30.934 36.6248 33.5664 36.6248 36.504C36.6248 47.2434 71.1958 49.4244 71.1958 81.204C71.1958 103.109 54.1297 118.204 29.3634 118.204C19.476 118.204 9.67124 115.572 0.953771 110.574H0.960129Z" fill="white" style="fill:white;fill-opacity:1;"/>
</g>
<defs>
<clipPath id="clip0_19_63">
<rect width="769" height="118.204" fill="white" style="fill:white;fill-opacity:1;"/>
</clipPath>
</defs>
</svg>
